<svg width="398" height="29" viewBox="0 0 398 29" fill="none" xmlns="http://www.w3.org/2000/svg">
<path d="M142.161 6.60721L142.148 6.61888L142.136 6.63099C141.524 7.23503 141.208 7.99592 141.208 8.8554C141.208 9.713 141.522 10.4756 142.112 11.0997L142.136 11.1247L142.161 11.1481C142.792 11.7299 143.558 12.0359 144.415 12.0359H165.588C166.653 12.0359 167.639 12.2454 168.555 12.6592L168.57 12.6662L168.586 12.6726C169.547 13.0681 170.362 13.6159 171.044 14.3149L171.057 14.3284L171.07 14.3414C171.778 15.0145 172.331 15.8186 172.73 16.7645L172.737 16.7802L172.744 16.7958C173.161 17.6976 173.372 18.6661 173.372 19.7133C173.372 20.7604 173.161 21.7477 172.74 22.6849L172.74 22.6849L172.734 22.6972C172.335 23.6175 171.778 24.4309 171.057 25.1428L171.05 25.1494L171.044 25.1562C170.359 25.8586 169.538 26.4237 168.571 26.8493C167.651 27.2377 166.66 27.4352 165.588 27.4352H137.343C137.06 27.4352 136.844 27.3546 136.65 27.1888C136.484 26.9988 136.406 26.7914 136.406 26.5217V23.3134L141.253 21.2658V21.6712V22.6712H142.253H165.588C166.396 22.6712 167.113 22.3716 167.687 21.8042C168.262 21.2365 168.57 20.5228 168.57 19.7133C168.57 18.9037 168.262 18.1901 167.687 17.6224C167.113 17.055 166.396 16.7553 165.588 16.7553H144.415C143.318 16.7553 142.282 16.5449 141.299 16.1256C140.328 15.6985 139.486 15.1293 138.766 14.4184C138.047 13.7076 137.472 12.8775 137.041 11.9207C136.618 10.9528 136.406 9.93411 136.406 8.8554C136.406 7.77494 136.618 6.77323 137.038 5.83925C137.47 4.88052 138.046 4.04887 138.766 3.3369C139.486 2.62598 140.328 2.05676 141.299 1.62965C142.282 1.21036 143.318 1 144.415 1H172.435C172.707 1 172.89 1.08342 173.056 1.26125L173.084 1.29048L173.113 1.31742C173.293 1.48164 173.372 1.65729 173.372 1.91348V5.1218L168.525 7.16942V6.71942V5.71942H167.525H144.415C143.558 5.71942 142.792 6.02541 142.161 6.60721Z" fill="white" stroke="#020202" stroke-width="2"/>
<path d="M5.76392 6.71942V7.16217L1 5.12497V1.91348C1 1.39778 1.39778 1 1.91348 1H25.2757C32.5108 1 38.471 6.96021 38.471 14.1953C38.471 21.4345 32.5068 27.4352 25.2757 27.4352H1.91348C1.4128 27.4352 1 27.008 1 26.5217V18.1874L5.76392 19.5351V21.6712V22.6712H6.76392H25.2312C29.8774 22.6712 33.7071 18.8416 33.7071 14.1953C33.7071 9.5491 29.8774 5.71942 25.2312 5.71942H6.76392H5.76392V6.71942Z" fill="white" stroke="#020202" stroke-width="2"/>
<path d="M123.915 24.2541H124.964V26.6517H123.147C120.402 26.6517 119.474 25.7247 119.433 24.1263C118.141 25.5968 116.082 26.8436 112.529 26.8436C108.008 26.8436 104.939 25.0533 104.939 22.0803C104.939 18.8196 107.806 16.9974 113.216 16.9974H119.272V15.8785C119.272 13.7686 117.374 12.4899 114.144 12.4899C111.238 12.4899 109.3 13.5768 108.896 15.2392H105.585C106.07 12.0424 109.34 10.1562 114.306 10.1562C119.554 10.1562 122.582 12.2342 122.582 16.0384V23.1672C122.582 24.0304 122.986 24.2541 123.915 24.2541ZM119.272 20.0024V19.2032H112.893C109.946 19.2032 108.29 20.0663 108.29 21.9205C108.29 23.5189 110.026 24.6058 112.772 24.6058C116.89 24.6058 119.272 22.7197 119.272 20.0024Z" fill="white"/>
<path d="M85.1546 21.1036V10.8135H81.2432V8.25802H85.1546V3.38556H88.6408V8.25802H94.2529V10.8135H88.6408V21.0695C88.6408 22.5346 89.2786 23.0798 91.1493 23.0798H94.593V25.6353H90.8091C86.6426 25.6353 85.1546 24.1702 85.1546 21.1036Z" fill="white"/>
<path d="M70.8066 24.2541H71.9146V26.6517H69.9969C67.0991 26.6517 66.1189 25.7247 66.0763 24.1263C64.7126 25.5968 62.5392 26.8436 58.789 26.8436C54.0161 26.8436 50.7773 25.0533 50.7773 22.0803C50.7773 18.8196 53.803 16.9974 59.5135 16.9974H65.9058V15.8785C65.9058 13.7686 63.9029 12.4899 60.4937 12.4899C57.4254 12.4899 55.3798 13.5768 54.9537 15.2392H51.4592C51.9706 12.0424 55.4224 10.1562 60.6641 10.1562C66.2041 10.1562 69.4003 12.2342 69.4003 16.0384V23.1672C69.4003 24.0304 69.8264 24.2541 70.8066 24.2541ZM65.9058 20.0024V19.2032H59.1726C56.0617 19.2032 54.3144 20.0663 54.3144 21.9205C54.3144 23.5189 56.1469 24.6058 59.0447 24.6058C63.3915 24.6058 65.9058 22.7197 65.9058 20.0024Z" fill="white"/>
<path d="M335.902 24.2541H337.068V26.6517H335.049C331.999 26.6517 330.967 25.7247 330.922 24.1263C329.487 25.5968 327.199 26.8436 323.251 26.8436C318.227 26.8436 314.818 25.0533 314.818 22.0803C314.818 18.8196 318.003 16.9974 324.014 16.9974H330.743V15.8785C330.743 13.7686 328.634 12.4899 325.046 12.4899C321.816 12.4899 319.663 13.5768 319.214 15.2392H315.536C316.074 12.0424 319.708 10.1562 325.225 10.1562C331.057 10.1562 334.421 12.2342 334.421 16.0384V23.1672C334.421 24.0304 334.87 24.2541 335.902 24.2541ZM330.743 20.0024V19.2032H323.655C320.381 19.2032 318.541 20.0663 318.541 21.9205C318.541 23.5189 320.47 24.6058 323.521 24.6058C328.096 24.6058 330.743 22.7197 330.743 20.0024Z" fill="white"/>
<path d="M303.63 10.1562H304.519V12.7739H302.934C298.798 12.7739 297.677 15.686 297.677 18.3363V26.8436H294.507V10.1562H297.252L297.677 12.6757C298.605 11.3996 300.112 10.1562 303.63 10.1562Z" fill="white"/>
<path d="M274.723 22.7165V13.4555H270.811V11.1555H274.723V6.77032H278.209V11.1555H283.821V13.4555H278.209V22.6859C278.209 24.0045 278.847 24.4952 280.717 24.4952H284.161V26.7951H280.377C276.211 26.7951 274.723 25.4765 274.723 22.7165Z" fill="white"/>
<path d="M243.73 21.2812H246.997C247.114 23.1993 249.176 24.6058 252.482 24.6058C255.283 24.6058 257.267 23.6149 257.267 22.1124C257.267 20.0665 255.088 19.9067 252.132 19.619C247.698 19.1714 244.158 18.4362 244.158 15.0476C244.158 12.0747 247.464 10.1247 251.937 10.1566C256.45 10.1886 259.717 11.9148 260.028 15.3034H256.761C256.527 13.6411 254.66 12.3943 251.937 12.3943C249.176 12.3943 247.309 13.3534 247.309 14.8558C247.309 16.646 249.409 16.8698 252.288 17.1575C256.8 17.605 260.417 18.3083 260.417 21.9206C260.417 24.9575 256.878 26.8436 252.482 26.8436C247.348 26.8436 243.808 24.8616 243.73 21.2812Z" fill="white"/>
<path d="M232.239 24.2541H233.289V26.6517H231.472C228.727 26.6517 227.798 25.7247 227.758 24.1263C226.466 25.5968 224.407 26.8436 220.854 26.8436C216.332 26.8436 213.264 25.0533 213.264 22.0803C213.264 18.8196 216.13 16.9974 221.54 16.9974H227.596V15.8785C227.596 13.7686 225.699 12.4899 222.469 12.4899C219.562 12.4899 217.624 13.5768 217.22 15.2392H213.91C214.394 12.0424 217.665 10.1562 222.63 10.1562C227.879 10.1562 230.907 12.2342 230.907 16.0384V23.1672C230.907 24.0304 231.31 24.2541 232.239 24.2541ZM227.596 20.0024V19.2032H221.217C218.27 19.2032 216.615 20.0663 216.615 21.9205C216.615 23.5189 218.351 24.6058 221.096 24.6058C225.214 24.6058 227.596 22.7197 227.596 20.0024Z" fill="white"/>
<path d="M195.92 9.23406C200.36 9.23406 203.982 11.2365 203.982 16.6083V25.6353H200.789V16.7672C200.789 13.3979 198.802 11.618 195.375 11.618C191.674 11.618 189.376 13.8747 189.376 17.53V25.6353H186.183V3.38556H189.376V12.0947C190.545 10.569 192.57 9.23406 195.92 9.23406Z" fill="white"/>
<path d="M386.875 26.8436C380.324 26.8436 375.75 23.4549 375.75 18.4999C375.75 13.5449 380.324 10.1562 386.875 10.1562C393.427 10.1562 398 13.5449 398 18.4999C398 23.4549 393.427 26.8436 386.875 26.8436ZM386.875 24.5099C391.317 24.5099 394.307 21.9844 394.307 18.4999C394.307 15.0154 391.317 12.4899 386.875 12.4899C382.434 12.4899 379.444 15.0154 379.444 18.4999C379.444 21.9844 382.434 24.5099 386.875 24.5099Z" fill="white"/>
<path d="M364.435 6.74521C363.176 6.74521 362.21 6.04792 362.21 5.06538C362.21 4.08285 363.176 3.38556 364.435 3.38556C365.694 3.38556 366.66 4.08285 366.66 5.06538C366.66 6.04792 365.694 6.74521 364.435 6.74521ZM362.672 25.6353V9.47096H366.114V25.6353H362.672Z" fill="white"/>
<path d="M348.769 24.2284C348.769 23.6295 348.974 23.1282 349.384 22.7182C349.794 22.3082 350.296 22.1034 350.894 22.1034C351.493 22.1034 351.995 22.3082 352.405 22.7182C352.815 23.1282 353.019 23.6295 353.019 24.2284C353.019 24.8273 352.815 25.3285 352.405 25.7386C351.995 26.1486 351.493 26.3534 350.894 26.3534C350.296 26.3534 349.794 26.1486 349.384 25.7386C348.974 25.3285 348.769 24.8273 348.769 24.2284Z" fill="white" stroke="#020202" stroke-width="0.2"/>
</svg>
