<svg width="222" height="38" viewBox="0 0 222 38" fill="none" xmlns="http://www.w3.org/2000/svg">
<path d="M77.7483 4.69378L77.742 4.69962L77.7359 4.70567C77.4038 5.03373 77.2324 5.44579 77.2324 5.91272C77.2324 6.37871 77.4026 6.79253 77.7238 7.13247L77.7357 7.14501L77.7483 7.15669C78.0921 7.47362 78.5081 7.63963 78.9744 7.63963H90.8879C91.4959 7.63963 92.0592 7.75929 92.5833 7.99595L92.5909 7.99942L92.5987 8.00263C93.1469 8.22826 93.6129 8.54124 94.0026 8.94092L94.0092 8.94768L94.016 8.95418C94.4206 9.33908 94.7368 9.79877 94.9645 10.3387L94.9678 10.3465L94.9714 10.3543C95.2102 10.8703 95.3308 11.4243 95.3308 12.0223C95.3308 12.6202 95.2102 13.1845 94.9692 13.7201L94.9692 13.7201L94.9665 13.7262C94.7387 14.2514 94.4204 14.7158 94.0092 15.1219L94.0092 15.1219L94.0026 15.1286C93.6112 15.5301 93.1426 15.8526 92.5911 16.0952C92.0654 16.3173 91.4993 16.4299 90.8879 16.4299H74.9948C74.8193 16.4299 74.6824 16.3785 74.5609 16.2733C74.455 16.154 74.4048 16.0216 74.4048 15.8532V14.0064L77.2577 12.8013V13.124V13.624H77.7577H90.8879C91.3259 13.624 91.7134 13.4621 92.0251 13.1542C92.3369 12.8462 92.5032 12.4605 92.5032 12.0223C92.5032 11.584 92.3369 11.1984 92.0251 10.8903C91.7134 10.5825 91.3259 10.4205 90.8879 10.4205H78.9744C78.3486 10.4205 77.7573 10.3005 77.196 10.0611C76.6425 9.81778 76.1624 9.49319 75.7518 9.08752L75.4004 9.44323L75.7518 9.08752C75.3411 8.6819 75.0131 8.20827 74.7674 7.66294C74.5258 7.1102 74.4048 6.52831 74.4048 5.91272C74.4048 5.29625 74.5262 4.72379 74.7664 4.18986C75.0122 3.64355 75.3405 3.16915 75.7518 2.76295C76.1624 2.35729 76.6425 2.0327 77.196 1.78939C77.7573 1.54999 78.3486 1.42993 78.9744 1.42993H94.7408C94.9103 1.42993 95.0303 1.48373 95.1359 1.59682L95.1496 1.61143L95.1644 1.6249C95.2789 1.72933 95.3308 1.84505 95.3308 2.00662V3.85345L92.4779 5.05857V4.71084V4.21084H91.9779H78.9744C78.5081 4.21084 78.0921 4.37685 77.7483 4.69378Z" fill="url(#paint0_linear_2282_2)" stroke="white"/>
<path d="M3.30595 4.71084V5.05495L0.5 3.85504V2.00662C0.5 1.68182 0.751887 1.42993 1.07668 1.42993H14.2222C18.3279 1.42993 21.7097 4.81171 21.7097 8.91741C21.7097 13.0252 18.3259 16.4299 14.2222 16.4299H1.07668C0.759398 16.4299 0.5 16.1606 0.5 15.8532V11.0808L3.30595 11.8746V13.124V13.624H3.80595H14.1972C16.7769 13.624 18.9038 11.4972 18.9038 8.91741C18.9038 6.33767 16.7769 4.21084 14.1972 4.21084H3.80595H3.30595V4.71084Z" fill="url(#paint1_linear_2282_2)" stroke="white"/>
<path d="M67.4386 14.5774H68.0293V15.9265H67.007C65.4622 15.9265 64.9398 15.4049 64.917 14.5055C64.1901 15.3329 63.0315 16.0344 61.0324 16.0344C58.4881 16.0344 56.7617 15.0271 56.7617 13.3543C56.7617 11.5195 58.3746 10.4942 61.4186 10.4942H64.8262V9.86461C64.8262 8.67741 63.7585 7.95789 61.9411 7.95789C60.3055 7.95789 59.2151 8.56948 58.9879 9.50485H57.1251C57.3977 7.70606 59.2378 6.64478 62.032 6.64478C64.9852 6.64478 66.689 7.81399 66.689 9.95454V13.9658C66.689 14.4515 66.9161 14.5774 67.4386 14.5774ZM64.8262 12.185V11.7353H61.2369C59.5786 11.7353 58.6472 12.221 58.6472 13.2643C58.6472 14.1637 59.624 14.7753 61.1687 14.7753C63.4859 14.7753 64.8262 13.714 64.8262 12.185Z" fill="url(#paint2_linear_2282_2)"/>
<path d="M45.6291 12.8039V7.01381H43.4282V5.57588H45.6291V2.83423H47.5908V5.57588H50.7486V7.01381H47.5908V12.7847C47.5908 13.6091 47.9496 13.9159 49.0022 13.9159H50.94V15.3538H48.8108C46.4664 15.3538 45.6291 14.5294 45.6291 12.8039Z" fill="url(#paint3_linear_2282_2)"/>
<path d="M37.556 14.5774H38.1795V15.9265H37.1004C35.4698 15.9265 34.9183 15.4049 34.8943 14.5055C34.127 15.3329 32.9041 16.0344 30.7939 16.0344C28.1083 16.0344 26.2859 15.0271 26.2859 13.3543C26.2859 11.5195 27.9884 10.4942 31.2016 10.4942H34.7984V9.86461C34.7984 8.67741 33.6714 7.95789 31.7531 7.95789C30.0266 7.95789 28.8756 8.56948 28.6358 9.50485H26.6696C26.9573 7.70606 28.8996 6.64478 31.849 6.64478C34.9663 6.64478 36.7647 7.81399 36.7647 9.95454V13.9658C36.7647 14.4515 37.0045 14.5774 37.556 14.5774ZM34.7984 12.185V11.7353H31.0098C29.2593 11.7353 28.2761 12.221 28.2761 13.2643C28.2761 14.1637 29.3072 14.7753 30.9378 14.7753C33.3837 14.7753 34.7984 13.714 34.7984 12.185Z" fill="url(#paint4_linear_2282_2)"/>
<path d="M186.721 14.5774H187.377V15.9265H186.241C184.525 15.9265 183.944 15.4049 183.919 14.5055C183.111 15.3329 181.824 16.0344 179.603 16.0344C176.776 16.0344 174.857 15.0271 174.857 13.3543C174.857 11.5195 176.65 10.4942 180.032 10.4942H183.818V9.86461C183.818 8.67741 182.632 7.95789 180.612 7.95789C178.795 7.95789 177.583 8.56948 177.331 9.50485H175.261C175.564 7.70606 177.609 6.64478 180.713 6.64478C183.995 6.64478 185.888 7.81399 185.888 9.95454V13.9658C185.888 14.4515 186.14 14.5774 186.721 14.5774ZM183.818 12.185V11.7353H179.83C177.987 11.7353 176.952 12.221 176.952 13.2643C176.952 14.1637 178.038 14.7753 179.754 14.7753C182.329 14.7753 183.818 13.714 183.818 12.185Z" fill="url(#paint5_linear_2282_2)"/>
<path d="M168.562 6.64478H169.063V8.11767H168.171C165.843 8.11767 165.213 9.75625 165.213 11.2476V16.0344H163.429V6.64478H164.973L165.213 8.06243C165.735 7.3444 166.583 6.64478 168.562 6.64478Z" fill="url(#paint6_linear_2282_2)"/>
<path d="M152.296 13.7132V8.5021H150.095V7.20796H152.296V4.74048H154.258V7.20796H157.416V8.5021H154.258V13.6959C154.258 14.4379 154.617 14.7139 155.669 14.7139H157.607V16.0081H155.478C153.134 16.0081 152.296 15.2661 152.296 13.7132Z" fill="url(#paint7_linear_2282_2)"/>
<path d="M134.857 12.9046H136.696C136.761 13.9839 137.921 14.7753 139.782 14.7753C141.358 14.7753 142.474 14.2177 142.474 13.3723C142.474 12.2211 141.248 12.1312 139.585 11.9693C137.09 11.7175 135.098 11.3037 135.098 9.39707C135.098 7.72424 136.958 6.62701 139.475 6.64499C142.014 6.66298 143.853 7.6343 144.028 9.54097H142.189C142.058 8.60563 141.008 7.90412 139.475 7.90412C137.921 7.90412 136.871 8.44374 136.871 9.28915C136.871 10.2964 138.053 10.4224 139.672 10.5842C142.211 10.8361 144.247 11.2318 144.247 13.2644C144.247 14.9732 142.255 16.0344 139.782 16.0344C136.893 16.0344 134.901 14.9192 134.857 12.9046Z" fill="url(#paint8_linear_2282_2)"/>
<path d="M128.391 14.5774H128.981V15.9265H127.959C126.414 15.9265 125.892 15.4049 125.869 14.5055C125.142 15.3329 123.984 16.0344 121.985 16.0344C119.44 16.0344 117.714 15.0271 117.714 13.3543C117.714 11.5195 119.327 10.4942 122.371 10.4942H125.778V9.86461C125.778 8.67741 124.711 7.95789 122.893 7.95789C121.258 7.95789 120.167 8.56948 119.94 9.50485H118.077C118.35 7.70606 120.19 6.64478 122.984 6.64478C125.937 6.64478 127.641 7.81399 127.641 9.95454V13.9658C127.641 14.4515 127.868 14.5774 128.391 14.5774ZM125.778 12.185V11.7353H122.189C120.531 11.7353 119.599 12.221 119.599 13.2643C119.599 14.1637 120.576 14.7753 122.121 14.7753C124.438 14.7753 125.778 13.714 125.778 12.185Z" fill="url(#paint9_linear_2282_2)"/>
<path d="M107.955 6.12508C110.454 6.12508 112.492 7.25184 112.492 10.2744V15.3538H110.695V10.3638C110.695 8.46803 109.577 7.46647 107.649 7.46647C105.567 7.46647 104.274 8.73631 104.274 10.7931V15.3538H102.476V2.83423H104.274V7.73474C104.931 6.87626 106.071 6.12508 107.955 6.12508Z" fill="url(#paint10_linear_2282_2)"/>
<path d="M215.403 16.0344C211.716 16.0344 209.143 14.1277 209.143 11.3396C209.143 8.55149 211.716 6.64478 215.403 6.64478C219.089 6.64478 221.662 8.55149 221.662 11.3396C221.662 14.1277 219.089 16.0344 215.403 16.0344ZM215.403 14.7213C217.902 14.7213 219.584 13.3003 219.584 11.3396C219.584 9.37893 217.902 7.95789 215.403 7.95789C212.904 7.95789 211.221 9.37893 211.221 11.3396C211.221 13.3003 212.904 14.7213 215.403 14.7213Z" fill="url(#paint11_linear_2282_2)"/>
<path d="M202.776 4.72465C202.067 4.72465 201.524 4.3323 201.524 3.77944C201.524 3.22658 202.067 2.83423 202.776 2.83423C203.485 2.83423 204.028 3.22658 204.028 3.77944C204.028 4.3323 203.485 4.72465 202.776 4.72465ZM201.784 15.3538V6.25838H203.721V15.3538H201.784Z" fill="url(#paint12_linear_2282_2)"/>
<path d="M193.243 14.5627C193.243 14.237 193.354 13.9662 193.576 13.7439C193.798 13.5216 194.069 13.4108 194.395 13.4108C194.721 13.4108 194.991 13.5216 195.214 13.7439C195.436 13.9662 195.547 14.237 195.547 14.5627C195.547 14.8885 195.436 15.1593 195.214 15.3816C194.991 15.6038 194.721 15.7147 194.395 15.7147C194.069 15.7147 193.798 15.6038 193.576 15.3816C193.354 15.1593 193.243 14.8885 193.243 14.5627Z" fill="url(#paint13_linear_2282_2)" stroke="url(#paint14_linear_2282_2)" stroke-width="0.2"/>
<path d="M131.898 35.0979C131.31 35.0979 130.829 35.0093 130.456 34.8319C130.092 34.6453 129.835 34.3979 129.686 34.0899H129.616V34.9299H128.608V32.0599H129.616V32.7039C129.616 32.9373 129.648 33.1566 129.714 33.3619C129.788 33.5579 129.905 33.7306 130.064 33.8799C130.232 34.0293 130.446 34.1459 130.708 34.2299C130.978 34.3139 131.305 34.3559 131.688 34.3559C132.5 34.3559 133.083 34.1833 133.438 33.8379C133.802 33.4926 133.984 33.0306 133.984 32.4519C133.984 31.9573 133.844 31.5699 133.564 31.2899C133.293 31.0099 132.864 30.7906 132.276 30.6319L131.506 30.4359C130.638 30.2119 129.966 29.8759 129.49 29.4279C129.014 28.9799 128.776 28.3639 128.776 27.5799C128.776 27.1879 128.85 26.8333 129 26.5159C129.149 26.1893 129.359 25.9139 129.63 25.6899C129.9 25.4659 130.222 25.2933 130.596 25.1719C130.978 25.0506 131.398 24.9899 131.856 24.9899C132.388 24.9899 132.822 25.0739 133.158 25.2419C133.503 25.4006 133.746 25.6246 133.886 25.9139H133.97V25.1579H134.978V27.8879H133.97V27.2439C133.97 27.0106 133.932 26.8006 133.858 26.6139C133.792 26.4273 133.676 26.2686 133.508 26.1379C133.34 26.0073 133.12 25.9093 132.85 25.8439C132.579 25.7693 132.248 25.7319 131.856 25.7319C131.202 25.7319 130.712 25.8813 130.386 26.1799C130.059 26.4786 129.896 26.8706 129.896 27.3559C129.896 27.8599 130.04 28.2566 130.33 28.5459C130.628 28.8259 131.095 29.0499 131.73 29.2179L132.444 29.3999C133.293 29.6239 133.946 29.9599 134.404 30.4079C134.861 30.8559 135.09 31.4439 135.09 32.1719C135.09 32.5919 135.02 32.9839 134.88 33.3479C134.74 33.7026 134.534 34.0106 134.264 34.2719C133.993 34.5333 133.657 34.7386 133.256 34.8879C132.864 35.0279 132.411 35.0979 131.898 35.0979ZM139.918 35.0979C139.396 35.0979 138.929 35.0093 138.518 34.8319C138.117 34.6453 137.776 34.3886 137.496 34.0619C137.216 33.7259 137.002 33.3293 136.852 32.8719C136.703 32.4053 136.628 31.8873 136.628 31.3179C136.628 30.7393 136.708 30.2166 136.866 29.7499C137.034 29.2833 137.268 28.8866 137.566 28.5599C137.865 28.2333 138.22 27.9813 138.63 27.8039C139.05 27.6266 139.512 27.5379 140.016 27.5379C140.772 27.5379 141.37 27.7013 141.808 28.0279C142.256 28.3453 142.48 28.7513 142.48 29.2459C142.48 29.5446 142.401 29.7779 142.242 29.9459C142.093 30.1139 141.883 30.1979 141.612 30.1979C141.323 30.1979 141.108 30.1139 140.968 29.9459C140.828 29.7779 140.758 29.5773 140.758 29.3439C140.758 29.1386 140.81 28.9613 140.912 28.8119C141.015 28.6626 141.16 28.5459 141.346 28.4619V28.4199C141.225 28.3453 141.066 28.2893 140.87 28.2519C140.684 28.2146 140.441 28.1959 140.142 28.1959C139.816 28.1959 139.512 28.2566 139.232 28.3779C138.962 28.4993 138.728 28.6719 138.532 28.8959C138.336 29.1106 138.182 29.3673 138.07 29.6659C137.958 29.9553 137.902 30.2726 137.902 30.6179V31.6539C137.902 32.0366 137.954 32.3866 138.056 32.7039C138.159 33.0119 138.304 33.2779 138.49 33.5019C138.686 33.7259 138.915 33.8986 139.176 34.0199C139.447 34.1413 139.75 34.2019 140.086 34.2019C140.656 34.2019 141.104 34.0853 141.43 33.8519C141.757 33.6093 142.018 33.2966 142.214 32.9139L142.662 33.2079C142.578 33.4506 142.457 33.6886 142.298 33.9219C142.14 34.1459 141.948 34.3466 141.724 34.5239C141.5 34.6919 141.234 34.8273 140.926 34.9299C140.628 35.0419 140.292 35.0979 139.918 35.0979ZM143.917 34.2859H144.953V28.6159L143.917 28.4339V27.9579L146.073 27.5379V28.7979H146.143C146.208 28.6486 146.288 28.4993 146.381 28.3499C146.484 28.2006 146.605 28.0653 146.745 27.9439C146.894 27.8226 147.062 27.7246 147.249 27.6499C147.445 27.5753 147.669 27.5379 147.921 27.5379C148.332 27.5379 148.658 27.6359 148.901 27.8319C149.153 28.0279 149.279 28.3126 149.279 28.6859C149.279 28.9659 149.209 29.1853 149.069 29.3439C148.929 29.5026 148.747 29.5819 148.523 29.5819C148.271 29.5819 148.07 29.5166 147.921 29.3859C147.772 29.2459 147.697 29.0686 147.697 28.8539C147.697 28.6673 147.734 28.5179 147.809 28.4059C147.893 28.2846 147.986 28.2146 148.089 28.1959V28.1679C148.052 28.1586 148.005 28.1539 147.949 28.1539C147.893 28.1446 147.823 28.1399 147.739 28.1399C147.543 28.1399 147.347 28.1913 147.151 28.2939C146.955 28.3873 146.778 28.5133 146.619 28.6719C146.47 28.8213 146.344 28.9939 146.241 29.1899C146.148 29.3859 146.101 29.5819 146.101 29.7779V34.2859H147.417V34.9299H143.917V34.2859ZM151.734 26.0399C151.491 26.0399 151.305 25.9699 151.174 25.8299C151.053 25.6806 150.992 25.5033 150.992 25.2979V25.2279C150.992 25.0226 151.053 24.8499 151.174 24.7099C151.305 24.5606 151.491 24.4859 151.734 24.4859C151.977 24.4859 152.163 24.5606 152.294 24.7099C152.425 24.8499 152.49 25.0226 152.49 25.2279V25.2979C152.49 25.5033 152.425 25.6806 152.294 25.8299C152.163 25.9699 151.977 26.0399 151.734 26.0399ZM150.124 34.2859H151.16V28.6159L150.124 28.4339V27.9579L152.308 27.5379V34.2859H153.344V34.9299H150.124V34.2859ZM154.4 37.0859H155.436V28.6159L154.4 28.4339V27.9579L156.584 27.5379V28.7979H156.64C156.799 28.4526 157.051 28.1586 157.396 27.9159C157.741 27.6639 158.199 27.5379 158.768 27.5379C159.664 27.5379 160.378 27.8646 160.91 28.5179C161.451 29.1619 161.722 30.0953 161.722 31.3179C161.722 32.5406 161.451 33.4786 160.91 34.1319C160.378 34.7759 159.664 35.0979 158.768 35.0979C158.208 35.0979 157.751 34.9766 157.396 34.7339C157.051 34.4913 156.799 34.1973 156.64 33.8519H156.584V37.0859H157.9V37.7299H154.4V37.0859ZM158.432 34.2999C159.076 34.2999 159.575 34.0853 159.93 33.6559C160.294 33.2173 160.476 32.6339 160.476 31.9059V30.7299C160.476 30.0019 160.294 29.4233 159.93 28.9939C159.575 28.5553 159.076 28.3359 158.432 28.3359C158.208 28.3359 157.984 28.3686 157.76 28.4339C157.536 28.4993 157.335 28.5926 157.158 28.7139C156.99 28.8353 156.85 28.9893 156.738 29.1759C156.635 29.3533 156.584 29.5539 156.584 29.7779V32.8579C156.584 33.0819 156.635 33.2873 156.738 33.4739C156.85 33.6513 156.99 33.8006 157.158 33.9219C157.335 34.0433 157.536 34.1366 157.76 34.2019C157.984 34.2673 158.208 34.2999 158.432 34.2999ZM165.254 35.0139C164.759 35.0139 164.419 34.9159 164.232 34.7199C164.045 34.5146 163.952 34.1693 163.952 33.6839V28.3919H163.028V27.7059H163.154C163.35 27.7059 163.504 27.6919 163.616 27.6639C163.737 27.6359 163.831 27.5986 163.896 27.5519C163.971 27.4959 164.022 27.4306 164.05 27.3559C164.087 27.2719 164.12 27.1786 164.148 27.0759L164.47 25.8299H165.1V27.7059H166.962V28.3919H165.1V34.2439H166.962V34.7059C166.878 34.7526 166.771 34.7946 166.64 34.8319C166.519 34.8693 166.379 34.9019 166.22 34.9299C166.071 34.9579 165.912 34.9766 165.744 34.9859C165.576 35.0046 165.413 35.0139 165.254 35.0139ZM169.672 26.0399C169.429 26.0399 169.242 25.9699 169.112 25.8299C168.99 25.6806 168.93 25.5033 168.93 25.2979V25.2279C168.93 25.0226 168.99 24.8499 169.112 24.7099C169.242 24.5606 169.429 24.4859 169.672 24.4859C169.914 24.4859 170.101 24.5606 170.232 24.7099C170.362 24.8499 170.428 25.0226 170.428 25.2279V25.2979C170.428 25.5033 170.362 25.6806 170.232 25.8299C170.101 25.9699 169.914 26.0399 169.672 26.0399ZM168.062 34.2859H169.098V28.6159L168.062 28.4339V27.9579L170.246 27.5379V34.2859H171.282V34.9299H168.062V34.2859ZM172.478 34.2859H173.514V28.6159L172.478 28.4339V27.9579L174.634 27.5379V28.7979H174.69C174.746 28.6579 174.83 28.5133 174.942 28.3639C175.063 28.2146 175.208 28.0793 175.376 27.9579C175.553 27.8366 175.758 27.7386 175.992 27.6639C176.225 27.5799 176.482 27.5379 176.762 27.5379C177.63 27.5379 178.25 27.7666 178.624 28.2239C179.006 28.6719 179.198 29.3486 179.198 30.2539V34.2859H180.234V34.9299H177.014V34.2859H178.05V30.3519C178.05 29.0079 177.485 28.3359 176.356 28.3359C176.15 28.3359 175.945 28.3639 175.74 28.4199C175.544 28.4759 175.362 28.5646 175.194 28.6859C175.035 28.8073 174.904 28.9566 174.802 29.1339C174.708 29.3113 174.662 29.5213 174.662 29.7639V34.2859H175.698V34.9299H172.478V34.2859ZM184.387 37.8979C183.827 37.8979 183.351 37.8559 182.959 37.7719C182.567 37.6879 182.25 37.5713 182.007 37.4219C181.764 37.2726 181.587 37.0906 181.475 36.8759C181.372 36.6613 181.321 36.4233 181.321 36.1619C181.321 35.9753 181.363 35.8026 181.447 35.6439C181.531 35.4853 181.643 35.3453 181.783 35.2239C181.923 35.1026 182.082 34.9999 182.259 34.9159C182.436 34.8226 182.618 34.7526 182.805 34.7059V34.6499C182.217 34.4446 181.923 34.0479 181.923 33.4599C181.923 33.0866 182.04 32.7926 182.273 32.5779C182.516 32.3633 182.796 32.2139 183.113 32.1299V32.0599C182.674 31.8733 182.324 31.5979 182.063 31.2339C181.811 30.8699 181.685 30.4313 181.685 29.9179C181.685 29.5539 181.75 29.2273 181.881 28.9379C182.021 28.6393 182.212 28.3873 182.455 28.1819C182.707 27.9766 183.001 27.8179 183.337 27.7059C183.673 27.5939 184.042 27.5379 184.443 27.5379C184.882 27.5379 185.255 27.5986 185.563 27.7199C185.88 27.8319 186.146 27.9719 186.361 28.1399C186.37 27.5986 186.473 27.2299 186.669 27.0339C186.874 26.8379 187.112 26.7399 187.383 26.7399C187.588 26.7399 187.756 26.8006 187.887 26.9219C188.027 27.0433 188.097 27.2066 188.097 27.4119C188.097 27.6079 188.032 27.7713 187.901 27.9019C187.78 28.0233 187.607 28.0839 187.383 28.0839C187.122 28.0839 186.921 27.9906 186.781 27.8039H186.739V28.5039C186.842 28.6439 186.949 28.8259 187.061 29.0499C187.173 29.2739 187.229 29.5633 187.229 29.9179C187.229 30.2819 187.159 30.6133 187.019 30.9119C186.879 31.2106 186.683 31.4626 186.431 31.6679C186.188 31.8733 185.894 32.0319 185.549 32.1439C185.213 32.2559 184.844 32.3119 184.443 32.3119C184.182 32.3119 183.934 32.2839 183.701 32.2279C183.458 32.2746 183.239 32.3773 183.043 32.5359C182.847 32.6853 182.749 32.8673 182.749 33.0819C182.749 33.3153 182.838 33.4786 183.015 33.5719C183.192 33.6653 183.491 33.7119 183.911 33.7119H185.563C186.384 33.7119 186.991 33.8799 187.383 34.2159C187.784 34.5426 187.985 35.0139 187.985 35.6299C187.985 36.3206 187.682 36.8713 187.075 37.2819C186.468 37.6926 185.572 37.8979 184.387 37.8979ZM184.457 31.7099C184.97 31.7099 185.353 31.5746 185.605 31.3039C185.866 31.0333 185.997 30.6646 185.997 30.1979V29.6519C185.997 29.1853 185.866 28.8166 185.605 28.5459C185.353 28.2753 184.97 28.1399 184.457 28.1399C183.944 28.1399 183.556 28.2753 183.295 28.5459C183.043 28.8166 182.917 29.1853 182.917 29.6519V30.1979C182.917 30.6646 183.043 31.0333 183.295 31.3039C183.556 31.5746 183.944 31.7099 184.457 31.7099ZM182.343 36.0919C182.343 36.4653 182.502 36.7453 182.819 36.9319C183.146 37.1186 183.58 37.2119 184.121 37.2119H184.779C185.479 37.2119 186.025 37.0953 186.417 36.8619C186.818 36.6286 187.019 36.3159 187.019 35.9239C187.019 35.5693 186.898 35.2986 186.655 35.1119C186.412 34.9346 185.988 34.8459 185.381 34.8459H183.197C182.898 34.9766 182.679 35.1493 182.539 35.3639C182.408 35.5786 182.343 35.8213 182.343 36.0919ZM192.358 34.2859H193.408V25.8019H192.358V25.1579H196.446C197.09 25.1579 197.678 25.2606 198.21 25.4659C198.742 25.6619 199.195 25.9653 199.568 26.3759C199.951 26.7773 200.245 27.2859 200.45 27.9019C200.665 28.5086 200.772 29.2226 200.772 30.0439C200.772 30.8653 200.665 31.5839 200.45 32.1999C200.245 32.8066 199.951 33.3153 199.568 33.7259C199.195 34.1273 198.742 34.4306 198.21 34.6359C197.678 34.8319 197.09 34.9299 196.446 34.9299H192.358V34.2859ZM194.612 34.2439H196.32C196.796 34.2439 197.225 34.1646 197.608 34.0059C198 33.8379 198.327 33.6093 198.588 33.3199C198.859 33.0213 199.064 32.6666 199.204 32.2559C199.353 31.8453 199.428 31.3879 199.428 30.8839V29.2039C199.428 28.6999 199.353 28.2426 199.204 27.8319C199.064 27.4213 198.859 27.0713 198.588 26.7819C198.327 26.4833 198 26.2546 197.608 26.0959C197.225 25.9279 196.796 25.8439 196.32 25.8439H194.612V34.2439ZM204.315 35.0979C203.643 35.0979 203.116 34.9253 202.733 34.5799C202.36 34.2253 202.173 33.7446 202.173 33.1379C202.173 32.7926 202.229 32.4893 202.341 32.2279C202.453 31.9573 202.635 31.7333 202.887 31.5559C203.148 31.3786 203.484 31.2433 203.895 31.1499C204.306 31.0566 204.805 31.0099 205.393 31.0099H206.429V29.9459C206.429 29.3766 206.289 28.9426 206.009 28.6439C205.738 28.3359 205.328 28.1819 204.777 28.1819C204.534 28.1819 204.31 28.2053 204.105 28.2519C203.9 28.2893 203.732 28.3453 203.601 28.4199V28.4479C203.704 28.5039 203.802 28.5879 203.895 28.6999C203.998 28.8119 204.049 28.9706 204.049 29.1759C204.049 29.4186 203.979 29.6099 203.839 29.7499C203.699 29.8806 203.512 29.9459 203.279 29.9459C203.055 29.9459 202.868 29.8806 202.719 29.7499C202.579 29.6099 202.509 29.4046 202.509 29.1339C202.509 28.9286 202.57 28.7326 202.691 28.5459C202.812 28.3499 202.985 28.1773 203.209 28.0279C203.433 27.8786 203.708 27.7619 204.035 27.6779C204.371 27.5846 204.749 27.5379 205.169 27.5379C205.925 27.5379 206.513 27.7339 206.933 28.1259C207.362 28.5179 207.577 29.0686 207.577 29.7779V34.3279H208.627V34.8179C208.524 34.8926 208.384 34.9579 208.207 35.0139C208.039 35.0699 207.848 35.0979 207.633 35.0979C207.269 35.0979 206.989 34.9953 206.793 34.7899C206.597 34.5846 206.499 34.3093 206.499 33.9639V33.8659H206.429C206.364 34.0246 206.275 34.1786 206.163 34.3279C206.06 34.4773 205.925 34.6079 205.757 34.7199C205.589 34.8319 205.384 34.9206 205.141 34.9859C204.908 35.0606 204.632 35.0979 204.315 35.0979ZM204.805 34.3279C205.253 34.3279 205.636 34.2159 205.953 33.9919C206.27 33.7586 206.429 33.4039 206.429 32.9279V31.5699H205.519C205.118 31.5699 204.782 31.6026 204.511 31.6679C204.24 31.7239 204.026 31.8126 203.867 31.9339C203.708 32.0459 203.592 32.1859 203.517 32.3539C203.452 32.5219 203.419 32.7179 203.419 32.9419V33.2359C203.419 33.5906 203.54 33.8613 203.783 34.0479C204.026 34.2346 204.366 34.3279 204.805 34.3279ZM211.807 35.0139C211.312 35.0139 210.971 34.9159 210.785 34.7199C210.598 34.5146 210.505 34.1693 210.505 33.6839V28.3919H209.581V27.7059H209.707C209.903 27.7059 210.057 27.6919 210.169 27.6639C210.29 27.6359 210.383 27.5986 210.449 27.5519C210.523 27.4959 210.575 27.4306 210.603 27.3559C210.64 27.2719 210.673 27.1786 210.701 27.0759L211.023 25.8299H211.653V27.7059H213.515V28.3919H211.653V34.2439H213.515V34.7059C213.431 34.7526 213.323 34.7946 213.193 34.8319C213.071 34.8693 212.931 34.9019 212.773 34.9299C212.623 34.9579 212.465 34.9766 212.297 34.9859C212.129 35.0046 211.965 35.0139 211.807 35.0139ZM216.756 35.0979C216.084 35.0979 215.557 34.9253 215.174 34.5799C214.801 34.2253 214.614 33.7446 214.614 33.1379C214.614 32.7926 214.67 32.4893 214.782 32.2279C214.894 31.9573 215.076 31.7333 215.328 31.5559C215.59 31.3786 215.926 31.2433 216.336 31.1499C216.747 31.0566 217.246 31.0099 217.834 31.0099H218.87V29.9459C218.87 29.3766 218.73 28.9426 218.45 28.6439C218.18 28.3359 217.769 28.1819 217.218 28.1819C216.976 28.1819 216.752 28.2053 216.546 28.2519C216.341 28.2893 216.173 28.3453 216.042 28.4199V28.4479C216.145 28.5039 216.243 28.5879 216.336 28.6999C216.439 28.8119 216.49 28.9706 216.49 29.1759C216.49 29.4186 216.42 29.6099 216.28 29.7499C216.14 29.8806 215.954 29.9459 215.72 29.9459C215.496 29.9459 215.31 29.8806 215.16 29.7499C215.02 29.6099 214.95 29.4046 214.95 29.1339C214.95 28.9286 215.011 28.7326 215.132 28.5459C215.254 28.3499 215.426 28.1773 215.65 28.0279C215.874 27.8786 216.15 27.7619 216.476 27.6779C216.812 27.5846 217.19 27.5379 217.61 27.5379C218.366 27.5379 218.954 27.7339 219.374 28.1259C219.804 28.5179 220.018 29.0686 220.018 29.7779V34.3279H221.068V34.8179C220.966 34.8926 220.826 34.9579 220.648 35.0139C220.48 35.0699 220.289 35.0979 220.074 35.0979C219.71 35.0979 219.43 34.9953 219.234 34.7899C219.038 34.5846 218.94 34.3093 218.94 33.9639V33.8659H218.87C218.805 34.0246 218.716 34.1786 218.604 34.3279C218.502 34.4773 218.366 34.6079 218.198 34.7199C218.03 34.8319 217.825 34.9206 217.582 34.9859C217.349 35.0606 217.074 35.0979 216.756 35.0979ZM217.246 34.3279C217.694 34.3279 218.077 34.2159 218.394 33.9919C218.712 33.7586 218.87 33.4039 218.87 32.9279V31.5699H217.96C217.559 31.5699 217.223 31.6026 216.952 31.6679C216.682 31.7239 216.467 31.8126 216.308 31.9339C216.15 32.0459 216.033 32.1859 215.958 32.3539C215.893 32.5219 215.86 32.7179 215.86 32.9419V33.2359C215.86 33.5906 215.982 33.8613 216.224 34.0479C216.467 34.2346 216.808 34.3279 217.246 34.3279Z" fill="#696969"/>
<defs>
<linearGradient id="paint0_linear_2282_2" x1="73.9048" y1="0.929932" x2="96.7706" y2="15.4344" gradientUnits="userSpaceOnUse">
<stop stop-color="#1E00D3"/>
<stop offset="1" stop-color="#9747FF"/>
</linearGradient>
<linearGradient id="paint1_linear_2282_2" x1="0" y1="0.929932" x2="22.9898" y2="15.7019" gradientUnits="userSpaceOnUse">
<stop stop-color="#1E00D3"/>
<stop offset="1" stop-color="#9747FF"/>
</linearGradient>
<linearGradient id="paint2_linear_2282_2" x1="56.7617" y1="6.64478" x2="69.3548" y2="13.6399" gradientUnits="userSpaceOnUse">
<stop stop-color="#1E00D3"/>
<stop offset="1" stop-color="#9747FF"/>
</linearGradient>
<linearGradient id="paint3_linear_2282_2" x1="43.4282" y1="2.83423" x2="53.6273" y2="5.66687" gradientUnits="userSpaceOnUse">
<stop stop-color="#1E00D3"/>
<stop offset="1" stop-color="#9747FF"/>
</linearGradient>
<linearGradient id="paint4_linear_2282_2" x1="26.2859" y1="6.64478" x2="39.2301" y2="14.2344" gradientUnits="userSpaceOnUse">
<stop stop-color="#1E00D3"/>
<stop offset="1" stop-color="#9747FF"/>
</linearGradient>
<linearGradient id="paint5_linear_2282_2" x1="174.857" y1="6.64478" x2="188.116" y2="14.8281" gradientUnits="userSpaceOnUse">
<stop stop-color="#1E00D3"/>
<stop offset="1" stop-color="#9747FF"/>
</linearGradient>
<linearGradient id="paint6_linear_2282_2" x1="163.429" y1="6.64478" x2="171.078" y2="8.76926" gradientUnits="userSpaceOnUse">
<stop stop-color="#1E00D3"/>
<stop offset="1" stop-color="#9747FF"/>
</linearGradient>
<linearGradient id="paint7_linear_2282_2" x1="150.095" y1="4.74048" x2="160.126" y2="7.83586" gradientUnits="userSpaceOnUse">
<stop stop-color="#1E00D3"/>
<stop offset="1" stop-color="#9747FF"/>
</linearGradient>
<linearGradient id="paint8_linear_2282_2" x1="134.857" y1="6.64478" x2="146.166" y2="11.8797" gradientUnits="userSpaceOnUse">
<stop stop-color="#1E00D3"/>
<stop offset="1" stop-color="#9747FF"/>
</linearGradient>
<linearGradient id="paint9_linear_2282_2" x1="117.714" y1="6.64478" x2="130.307" y2="13.6399" gradientUnits="userSpaceOnUse">
<stop stop-color="#1E00D3"/>
<stop offset="1" stop-color="#9747FF"/>
</linearGradient>
<linearGradient id="paint10_linear_2282_2" x1="102.476" y1="2.83423" x2="115.358" y2="7.60435" gradientUnits="userSpaceOnUse">
<stop stop-color="#1E00D3"/>
<stop offset="1" stop-color="#9747FF"/>
</linearGradient>
<linearGradient id="paint11_linear_2282_2" x1="209.143" y1="6.64478" x2="222.402" y2="14.8281" gradientUnits="userSpaceOnUse">
<stop stop-color="#1E00D3"/>
<stop offset="1" stop-color="#9747FF"/>
</linearGradient>
<linearGradient id="paint12_linear_2282_2" x1="201.524" y1="2.83423" x2="205.155" y2="3.17036" gradientUnits="userSpaceOnUse">
<stop stop-color="#1E00D3"/>
<stop offset="1" stop-color="#9747FF"/>
</linearGradient>
<linearGradient id="paint13_linear_2282_2" x1="193.143" y1="13.3108" x2="196.159" y2="14.7068" gradientUnits="userSpaceOnUse">
<stop stop-color="#1E00D3"/>
<stop offset="1" stop-color="#9747FF"/>
</linearGradient>
<linearGradient id="paint14_linear_2282_2" x1="193.143" y1="13.3108" x2="196.159" y2="14.7068" gradientUnits="userSpaceOnUse">
<stop stop-color="#1E00D3"/>
<stop offset="1" stop-color="#9747FF"/>
</linearGradient>
</defs>
</svg>
