<svg width="421" height="410" viewBox="0 0 421 410" fill="none" xmlns="http://www.w3.org/2000/svg">
<rect width="421" height="410" fill="url(#paint0_linear_1146_2062)"/>
<path opacity="0.16" d="M323.897 410H164.089C160.436 410 157.291 408.678 154.653 406.033C152.218 403.388 151 400.336 151 396.878V330.657L197.268 343.779V363.615H323.593C330.696 363.615 337.291 362.293 343.379 359.648C349.67 356.8 355.047 353.138 359.512 348.662C364.179 343.983 367.832 338.49 370.47 332.183C373.311 325.876 374.732 319.264 374.732 312.347C374.732 305.227 373.311 298.615 370.47 292.512C367.832 286.205 364.179 280.814 359.512 276.338C355.047 271.659 349.67 267.997 343.379 265.352C337.291 262.504 330.696 261.08 323.593 261.08H197.268V274.507L151 254.671V228.122C151 224.46 152.218 221.408 154.653 218.967C157.291 216.322 160.436 215 164.089 215H323.897C337.291 215 349.873 217.543 361.643 222.629C373.413 227.715 383.661 234.734 392.387 243.685C401.316 252.433 408.317 262.707 413.39 274.507C418.463 286.307 421 298.92 421 312.347C421 325.775 418.463 338.388 413.39 350.188C408.317 361.987 401.316 372.363 392.387 381.315C383.661 390.063 373.413 397.081 361.643 402.371C349.873 407.457 337.291 410 323.897 410Z" fill="white"/>
<defs>
<linearGradient id="paint0_linear_1146_2062" x1="0" y1="0" x2="502.241" y2="238.72" gradientUnits="userSpaceOnUse">
<stop stop-color="#1E00D3"/>
<stop offset="1" stop-color="#9747FF"/>
</linearGradient>
</defs>
</svg>
