<svg width="23" height="16" viewBox="0 0 23 16" fill="none" xmlns="http://www.w3.org/2000/svg">
<path d="M14.2222 16H1.07668C0.776213 16 0.517476 15.8915 0.30047 15.6745C0.100157 15.4575 0 15.2071 0 14.9233V9.48983L3.80595 10.5665V12.1941H14.1972C14.7814 12.1941 15.324 12.0856 15.8247 11.8685C16.3422 11.6348 16.7846 11.3344 17.1518 10.9671C17.5357 10.5832 17.8362 10.1325 18.0532 9.61502C18.2869 9.09755 18.4038 8.55503 18.4038 7.98748C18.4038 7.40323 18.2869 6.86072 18.0532 6.35994C17.8362 5.84246 17.5357 5.40011 17.1518 5.03286C16.7846 4.64893 16.3422 4.34846 15.8247 4.13146C15.324 3.89776 14.7814 3.78091 14.1972 3.78091H3.80595V4.88263L0 3.25509V1.07668C0 0.776214 0.100157 0.525822 0.30047 0.325509C0.517476 0.108503 0.776213 0 1.07668 0H14.2222C15.3239 0 16.3589 0.208659 17.3271 0.625979C18.2953 1.0433 19.1382 1.6192 19.856 2.35368C20.5905 3.07147 21.1664 3.91445 21.5837 4.88263C22.0011 5.85081 22.2097 6.88576 22.2097 7.98748C22.2097 9.0892 22.0011 10.1242 21.5837 11.0923C21.1664 12.0605 20.5905 12.9118 19.856 13.6463C19.1382 14.3641 18.2953 14.94 17.3271 15.374C16.3589 15.7913 15.3239 16 14.2222 16Z" fill="url(#paint0_linear_1498_11375)"/>
<defs>
<linearGradient id="paint0_linear_1498_11375" x1="0" y1="0" x2="22.9898" y2="14.7719" gradientUnits="userSpaceOnUse">
<stop stop-color="#1E00D3"/>
<stop offset="1" stop-color="#9747FF"/>
</linearGradient>
</defs>
</svg>
